<?xml version="1.0" standalone="no"?>
<!DOCTYPE svg PUBLIC "-//W3C//DTD SVG 20010904//EN"
 "http://www.w3.org/TR/2001/REC-SVG-20010904/DTD/svg10.dtd">
<svg version="1.0" xmlns="http://www.w3.org/2000/svg"
 width="1351.000000pt" height="1351.000000pt" viewBox="0 0 1351.000000 1351.000000"
 preserveAspectRatio="xMidYMid meet">
<metadata>
Created by potrace 1.11, written by Peter Selinger 2001-2013
</metadata>
<g transform="translate(0.000000,1351.000000) scale(0.100000,-0.100000)"
fill="#000000" stroke="none">
<path d="M6715 10713 c-204 -372 -640 -859 -1208 -1349 -648 -561 -927 -977
-988 -1478 -14 -120 -7 -352 16 -481 18 -102 74 -321 104 -409 12 -33 21 -60
21 -61 0 -1 -39 -5 -87 -9 -759 -59 -1329 -555 -1578 -1371 -52 -172 -95 -365
-165 -741 -76 -414 -119 -600 -181 -788 -77 -236 -204 -477 -331 -628 l-39
-47 128 6 c225 10 601 -23 858 -77 176 -36 304 -79 608 -201 532 -214 840
-302 1185 -339 177 -20 476 -8 629 24 381 81 703 265 981 561 l85 92 106 -110
c178 -184 329 -296 536 -398 280 -137 526 -186 884 -176 402 11 728 94 1348
343 310 125 445 169 633 208 254 52 620 83 842 72 l128 -6 -64 79 c-118 146
-220 339 -300 569 -56 161 -112 401 -182 777 -72 391 -120 605 -170 773 -199
659 -602 1106 -1163 1292 -144 48 -233 67 -387 82 l-122 12 13 31 c25 59 84
274 105 381 106 553 -17 1001 -404 1469 -112 135 -330 348 -576 564 -571 501
-988 969 -1193 1339 l-34 63 -38 -68z m202 -256 c150 -212 347 -442 588 -683
172 -172 251 -245 520 -479 522 -453 794 -826 894 -1223 31 -125 43 -227 43
-377 -1 -213 -39 -424 -122 -670 -22 -65 -39 -119 -37 -120 1 -1 63 -7 138
-13 223 -18 413 -69 604 -162 170 -82 276 -160 431 -314 156 -157 257 -296
351 -486 145 -293 202 -496 328 -1175 36 -192 81 -414 100 -491 75 -306 181
-559 317 -760 l75 -111 -221 -6 c-516 -15 -796 -74 -1291 -272 -568 -227 -864
-311 -1223 -346 -156 -15 -406 -6 -550 21 -398 73 -758 281 -1036 598 l-69 79
-156 -156 c-175 -176 -285 -259 -461 -350 -291 -150 -572 -210 -920 -198 -399
15 -748 106 -1360 357 -332 136 -514 187 -805 229 -149 21 -399 40 -582 44
l-112 2 65 95 c190 278 290 559 393 1098 23 116 59 308 82 425 79 413 146 638
260 877 185 385 443 657 785 828 198 99 435 164 655 178 l106 7 -43 126 c-90
267 -126 460 -126 676 -1 550 285 1016 1013 1652 252 220 422 380 577 546 228
241 442 511 566 711 l59 95 53 -85 c29 -46 79 -121 111 -167z"/>
<path d="M6644 10193 c-304 -384 -643 -726 -1114 -1124 -428 -363 -682 -752
-767 -1176 -27 -135 -24 -413 6 -553 38 -180 106 -361 191 -511 22 -39 38 -74
35 -78 -2 -5 -57 -11 -122 -14 -144 -7 -371 -46 -517 -87 -464 -131 -804 -391
-976 -745 -107 -221 -235 -691 -320 -1175 -59 -337 -86 -457 -137 -612 -44
-136 -155 -375 -231 -498 l-40 -65 157 -7 c409 -17 851 -133 1356 -355 214
-95 423 -164 590 -197 773 -150 1463 92 1939 682 32 40 59 72 60 72 1 0 30
-35 64 -78 82 -104 255 -272 367 -354 404 -300 901 -418 1445 -342 221 30 417
88 664 196 572 251 1062 378 1453 378 57 0 103 3 103 6 0 3 -25 48 -56 101
-122 206 -214 434 -267 658 -15 61 -49 238 -77 395 -61 345 -95 497 -166 742
-111 388 -181 539 -334 723 -154 186 -422 353 -717 448 -210 68 -478 116 -644
117 -42 0 -78 3 -81 6 -3 3 14 40 38 82 57 99 126 263 158 375 110 378 73 755
-109 1117 -143 285 -322 497 -658 782 -470 399 -843 784 -1157 1197 l-26 34
-110 -140z m217 -489 c145 -42 254 -175 287 -354 25 -130 30 -115 -45 -134
-36 -9 -105 -34 -153 -56 -97 -44 -176 -63 -229 -54 -20 3 -81 27 -135 52 -55
25 -129 53 -165 62 l-66 18 4 43 c5 64 46 187 79 239 58 90 155 161 257 186
69 17 102 17 166 -2z m-420 -520 c29 -9 90 -35 134 -58 79 -40 81 -41 185 -41
102 0 108 2 195 42 158 73 248 91 260 52 17 -51 -16 -158 -69 -224 -17 -22
-50 -79 -74 -126 -71 -146 -204 -249 -321 -249 -114 0 -291 164 -336 310 -4
14 -21 40 -36 58 -42 47 -69 106 -76 161 -10 91 23 109 138 75z m826 -454 c34
-16 100 -41 145 -55 171 -55 250 -98 346 -188 210 -199 292 -476 279 -945 -8
-280 -47 -534 -128 -829 l-31 -112 -84 -41 c-46 -22 -128 -74 -182 -114 -188
-142 -321 -309 -521 -656 -40 -69 -85 -137 -102 -152 -35 -33 -77 -36 -110 -9
-22 18 -22 20 -7 43 9 14 45 52 78 84 80 76 171 196 209 277 49 102 55 146 43
293 -7 92 -7 159 1 234 7 58 12 160 12 228 0 67 1 122 2 122 26 0 290 -81 348
-106 105 -47 111 -48 118 -31 4 11 -11 22 -52 40 l-58 25 -7 399 c-8 449 0
592 39 727 14 49 30 96 35 106 7 13 6 20 -6 24 -18 7 -37 -34 -65 -142 -10
-42 -21 -77 -22 -79 -2 -2 -11 23 -20 54 -21 73 -54 130 -69 115 -7 -7 -5 -19
6 -39 9 -15 28 -62 42 -103 l26 -75 4 -487 4 -488 -26 10 c-14 6 -92 29 -172
51 -80 22 -152 43 -159 46 -12 5 -13 -2 -8 -33 l7 -39 -47 45 c-25 25 -59 65
-73 90 -24 40 -26 52 -22 115 2 39 4 117 4 175 -1 91 -5 118 -33 200 -53 158
-127 279 -187 307 -75 36 -84 -41 -29 -253 41 -159 41 -158 16 -144 -34 18
-61 12 -71 -16 -17 -43 -11 -112 11 -156 21 -41 21 -43 4 -97 -38 -118 -30
-239 22 -347 30 -62 71 -106 137 -149 67 -43 126 -106 170 -180 19 -32 34 -60
33 -62 -2 -1 -32 10 -67 25 -64 27 -68 27 -290 27 -212 0 -228 -2 -283 -24
-256 -102 -215 -383 102 -696 74 -73 88 -105 52 -125 -11 -5 -29 -10 -40 -10
-47 0 -72 24 -133 129 -153 264 -273 439 -376 552 -114 124 -308 258 -442 306
-56 20 -81 34 -85 48 -18 64 -67 292 -85 396 -61 356 -66 663 -14 879 50 205
247 490 422 608 80 55 123 75 237 112 109 36 196 76 263 122 24 17 47 26 51
22 4 -5 24 -32 45 -61 43 -60 109 -112 191 -149 47 -22 67 -26 110 -21 102 10
217 89 285 194 l45 70 50 -29 c28 -16 78 -42 112 -58z m-416 -977 c57 -61 125
-210 154 -334 13 -61 15 -101 9 -224 l-6 -150 44 -65 c24 -36 65 -81 91 -100
47 -35 47 -35 47 -95 0 -33 -7 -109 -15 -170 -8 -60 -15 -132 -15 -160 l0 -50
-41 70 c-59 102 -104 152 -179 200 -114 73 -167 162 -177 296 -6 76 7 142 48
241 58 141 59 206 3 398 -13 46 -24 108 -24 137 0 48 2 53 18 44 9 -5 29 -22
43 -38z m-42 -385 c12 -21 12 -32 1 -72 -7 -25 -16 -46 -20 -46 -22 0 -42 125
-23 144 11 11 27 1 42 -26z m-1405 -744 c320 -55 574 -224 788 -525 37 -52
118 -179 180 -282 61 -104 125 -199 141 -213 41 -34 118 -34 152 1 45 44 35
66 -89 195 -131 135 -188 225 -222 348 -25 89 -14 145 39 198 68 67 133 86
318 92 170 5 262 -6 341 -40 95 -41 139 -125 119 -227 -24 -121 -92 -229 -238
-382 -83 -88 -103 -114 -103 -138 0 -68 116 -98 178 -46 17 14 67 89 112 168
204 353 350 532 543 668 171 121 356 182 620 205 93 8 91 14 42 -133 -73 -219
-206 -433 -334 -540 -137 -114 -463 -251 -817 -343 -92 -24 -176 -68 -200
-105 -16 -24 -15 -27 0 -44 16 -18 35 -19 294 -18 166 0 317 -4 377 -12 384
-47 604 -178 739 -441 35 -67 86 -196 86 -217 0 -2 -21 7 -47 21 -27 13 -82
36 -123 52 -74 27 -80 28 -360 34 -385 10 -392 12 -655 199 -175 124 -339 215
-449 246 -90 26 -146 16 -280 -48 -119 -57 -165 -86 -356 -222 -223 -159 -246
-166 -620 -175 -280 -6 -286 -7 -360 -34 -41 -16 -96 -39 -123 -53 l-48 -24 7
28 c13 53 55 158 86 213 112 200 287 327 529 384 167 40 283 50 574 49 150 -1
278 3 288 8 9 6 17 21 17 35 0 36 -97 96 -202 124 -268 70 -436 131 -629 227
-131 64 -157 81 -227 150 -141 138 -249 334 -326 592 l-16 54 83 -7 c45 -4
122 -13 171 -22z m1796 -1734 c729 -52 1342 -222 1728 -482 67 -45 71 -50 61
-71 -27 -50 -303 -533 -309 -540 -4 -4 -35 8 -70 29 -338 198 -826 331 -1410
385 -199 19 -678 16 -886 -5 -529 -52 -1002 -170 -1413 -352 -80 -35 -148 -61
-152 -57 -4 5 -73 125 -154 268 -81 143 -155 275 -165 292 l-19 33 67 37 c389
218 1102 403 1737 453 77 5 158 12 180 13 102 8 675 6 805 -3z m-2581 -918
l124 -218 76 12 c95 16 273 17 326 3 55 -15 85 -45 85 -85 0 -42 -32 -68 -116
-94 -293 -90 -921 -115 -1299 -50 -116 20 -204 48 -157 49 44 2 357 73 448
102 93 30 148 62 141 83 -3 8 -73 11 -243 11 -264 1 -312 7 -502 70 -180 60
-180 65 -7 58 394 -15 741 70 931 226 32 27 61 50 64 50 3 1 61 -97 129 -217z
m4513 81 c210 -104 480 -151 793 -140 l150 5 -55 -25 c-76 -35 -186 -69 -283
-90 -64 -13 -134 -17 -321 -17 -254 -1 -271 -5 -220 -45 47 -37 350 -120 537
-147 27 -3 45 -10 40 -14 -13 -13 -187 -48 -293 -59 -429 -47 -1095 6 -1246
99 -60 37 -56 102 8 137 44 23 231 29 353 11 l91 -13 123 216 124 217 58 -47
c32 -26 96 -66 141 -88z m-852 -98 c175 -69 393 -183 309 -162 -61 15 -219 19
-284 7 -79 -15 -135 -55 -135 -97 0 -39 -25 -12 -45 47 -18 53 -22 113 -15
198 l5 54 35 -5 c19 -3 78 -21 130 -42z m-2967 -26 c10 -57 0 -143 -23 -196
-11 -24 -21 -43 -24 -43 -3 0 -12 16 -21 35 -11 27 -26 41 -62 58 -43 20 -64
22 -192 21 l-145 0 65 29 c92 42 372 146 384 143 5 -1 13 -22 18 -47z"/>
<path d="M6715 8368 c-103 -110 -162 -194 -210 -293 -57 -117 -73 -182 -86
-344 -18 -236 -58 -304 -322 -551 -162 -150 -183 -167 -188 -147 -3 12 -4 96
-1 187 3 111 -1 218 -12 326 -9 89 -16 200 -16 247 0 79 20 188 41 229 13 24
-11 35 -27 13 -8 -10 -15 -17 -17 -14 -2 2 -16 25 -31 52 -15 26 -33 47 -41
47 -17 0 -20 -26 -4 -36 6 -3 22 -30 35 -58 22 -48 24 -59 18 -166 -4 -77 -1
-173 10 -290 10 -98 16 -234 14 -309 l-3 -135 -37 60 c-43 69 -103 131 -112
115 -4 -6 14 -35 39 -66 47 -58 93 -142 115 -208 12 -37 11 -40 -17 -70 -38
-40 -73 -92 -73 -106 0 -6 7 -11 15 -11 8 0 15 3 15 8 0 4 21 33 48 64 52 62
370 363 377 357 10 -11 27 -491 21 -626 -4 -124 -3 -153 8 -153 13 0 26 120
26 243 0 41 7 58 54 125 74 106 188 307 215 380 14 37 44 85 75 120 72 84 88
136 92 291 4 161 10 202 40 278 42 104 19 168 -46 131 -17 -9 -30 -12 -30 -7
0 6 27 74 59 152 67 162 78 201 61 222 -21 25 -36 17 -105 -57z m27 -125
c-115 -285 -125 -351 -70 -469 28 -60 32 -79 32 -154 0 -112 -20 -171 -87
-248 -29 -33 -60 -83 -70 -110 -21 -58 -114 -227 -189 -344 l-53 -82 -6 39
c-4 22 -10 129 -14 237 l-7 198 35 41 c42 49 101 158 116 214 5 22 15 99 20
170 20 249 94 407 284 602 34 34 63 61 65 58 2 -2 -23 -70 -56 -152z m31 -216
c3 -7 -6 -39 -20 -71 -13 -33 -29 -86 -35 -119 l-11 -60 -15 28 c-41 78 -34
140 22 200 35 37 51 43 59 22z"/>
<path d="M6715 4772 c-11 -7 -81 -162 -131 -285 -15 -40 -37 -75 -50 -84 -38
-24 -29 -31 41 -29 36 0 65 4 65 7 0 4 -9 13 -20 20 -20 14 -20 16 -4 62 l16
47 67 0 67 0 17 -51 c15 -49 15 -51 -4 -56 -10 -3 -19 -10 -19 -17 0 -7 30
-12 85 -13 47 -1 85 2 85 7 0 4 -10 15 -23 23 -13 8 -32 37 -42 64 -40 107
-128 313 -134 313 -3 0 -11 -4 -16 -8z m10 -162 c9 -25 19 -51 22 -57 4 -10
-9 -13 -46 -13 -28 0 -51 3 -51 7 0 19 45 121 51 115 3 -4 14 -27 24 -52z"/>
<path d="M6315 4761 c-71 -17 -105 -54 -105 -113 0 -52 32 -84 115 -114 39
-14 78 -33 88 -41 24 -23 22 -68 -5 -87 -47 -33 -116 -14 -148 41 -19 32 -40
44 -40 22 0 -5 5 -30 11 -54 12 -48 27 -55 121 -55 93 0 148 46 148 124 0 54
-39 92 -118 116 -86 27 -112 44 -112 75 0 32 35 55 85 55 33 0 47 -6 70 -30
40 -41 55 -39 45 6 -10 44 -10 44 -57 55 -43 10 -56 10 -98 0z"/>
<path d="M6970 4761 c0 -6 12 -16 26 -21 24 -10 25 -12 20 -77 -3 -38 -8 -111
-12 -164 -5 -91 -7 -97 -31 -108 -14 -7 -24 -13 -22 -15 11 -9 169 -15 169 -7
0 5 -10 13 -21 16 -20 7 -21 11 -15 99 16 236 17 237 42 246 44 17 25 30 -43
30 -38 0 -78 3 -90 6 -14 4 -23 2 -23 -5z"/>
<path d="M6055 4733 c-72 -8 -95 -15 -90 -24 4 -5 15 -9 25 -9 24 0 25 -5 46
-182 l18 -147 -25 -21 -24 -21 50 6 c96 11 125 17 125 25 0 5 -10 10 -22 12
-21 3 -24 11 -35 98 -27 219 -27 237 -4 245 12 3 21 11 21 16 0 9 -25 10 -85
2z"/>
<path d="M7340 4726 c0 -7 9 -16 20 -19 24 -6 25 -16 5 -172 -20 -161 -21
-164 -50 -171 -14 -3 -25 -9 -25 -13 0 -10 203 -36 268 -34 207 5 262 287 70
367 -20 9 -83 23 -140 31 -57 8 -113 17 -125 20 -16 4 -23 1 -23 -9z m240 -70
c60 -28 83 -72 76 -143 -10 -115 -62 -167 -159 -160 -31 2 -61 8 -66 13 -6 6
28 294 38 321 3 7 72 -12 111 -31z"/>
<path d="M5620 4664 c-106 -23 -111 -24 -105 -34 3 -6 15 -10 26 -10 26 0 34
-21 68 -183 28 -134 28 -139 10 -150 -28 -17 -25 -39 4 -28 12 4 52 14 90 21
65 12 91 30 43 30 -31 0 -41 14 -55 79 -18 86 -3 86 88 -2 80 -78 87 -82 154
-71 42 7 48 19 15 29 -13 4 -53 36 -89 72 l-66 64 29 31 c19 21 28 41 28 65 0
94 -77 122 -240 87z m135 -48 c37 -56 9 -126 -50 -126 -21 0 -25 7 -35 58 -6
31 -14 65 -16 75 -5 14 2 17 40 17 37 0 48 -4 61 -24z"/>
<path d="M7830 4652 c0 -5 9 -16 21 -24 l21 -13 -31 -145 c-40 -184 -39 -180
-61 -180 -31 0 -33 -19 -3 -25 15 -3 52 -12 80 -19 59 -15 74 -10 43 14 l-20
15 36 155 c19 85 38 158 40 162 3 5 14 8 24 8 10 0 21 4 24 9 3 5 -29 17 -71
26 -43 10 -83 20 -90 22 -7 3 -13 1 -13 -5z"/>
<path d="M5295 4589 c-55 -16 -117 -34 -139 -40 -40 -11 -39 -25 3 -31 22 -3
28 -17 69 -157 l45 -154 -24 -18 c-13 -10 -22 -20 -19 -22 3 -3 61 10 129 29
69 19 133 34 143 34 21 0 24 6 32 68 7 50 -13 59 -31 13 -13 -35 -44 -57 -100
-69 -30 -7 -45 -6 -52 2 -7 9 -41 115 -41 129 0 2 21 10 47 16 44 12 48 11 64
-11 26 -34 33 -16 17 45 -13 56 -31 73 -36 37 -4 -23 -22 -34 -69 -44 -31 -7
-32 -7 -47 45 -23 77 -21 84 23 97 57 18 95 15 116 -8 10 -11 24 -20 32 -20
17 0 17 -2 -7 48 -13 27 -27 42 -38 41 -9 -1 -62 -14 -117 -30z"/>
<path d="M8060 4598 c0 -5 9 -17 20 -26 20 -17 20 -18 -19 -164 -21 -81 -42
-151 -46 -157 -3 -6 -15 -11 -25 -11 -10 0 -21 -4 -24 -8 -5 -9 176 -63 184
-55 3 3 -8 15 -24 28 l-29 23 18 66 c26 95 29 92 97 -89 22 -57 25 -61 76 -79
57 -20 80 -14 45 12 -14 11 -34 51 -53 106 -16 50 -30 91 -30 93 0 2 9 3 19 3
29 0 79 46 86 80 8 35 -15 83 -51 106 -33 22 -244 84 -244 72z m188 -91 c45
-42 11 -127 -51 -127 -53 0 -56 8 -34 88 18 65 22 72 41 66 12 -3 31 -16 44
-27z"/>
<path d="M4858 4453 c-60 -20 -108 -41 -108 -45 0 -3 14 -8 32 -10 31 -3 32
-6 85 -147 29 -79 53 -149 53 -156 0 -7 -7 -15 -15 -19 -8 -3 -15 -12 -15 -20
0 -11 16 -7 73 15 39 15 80 28 90 29 31 0 13 24 -19 25 -23 0 -32 7 -46 36
-33 70 -33 86 -1 94 81 20 129 80 120 148 -13 93 -85 108 -249 50z m129 -18
c26 -18 47 -77 38 -105 -6 -18 -52 -50 -72 -50 -8 0 -55 124 -54 145 0 9 29
21 56 24 6 1 20 -6 32 -14z"/>
<path d="M8500 4463 c0 -7 7 -16 15 -19 8 -4 15 -11 15 -17 0 -5 -23 -77 -52
-159 -46 -132 -54 -148 -74 -148 -48 0 -30 -18 46 -47 77 -29 96 -28 66 6 -12
14 -6 35 38 156 62 167 61 165 92 165 44 0 25 15 -61 46 -64 23 -85 28 -85 17z"/>
</g>
</svg>
